<mxfile host="app.diagrams.net" agent="Mozilla/5.0 (Macintosh; Intel Mac OS X 10_15_7) AppleWebKit/537.36 (KHTML, like Gecko) Chrome/137.0.0.0 Safari/537.36" version="27.1.6">
  <diagram name="Page-1" id="xi5wRHiDeEijSOn6bc4M">
    <mxGraphModel dx="1426" dy="766" grid="1" gridSize="10" guides="1" tooltips="1" connect="1" arrows="1" fold="1" page="1" pageScale="1" pageWidth="827" pageHeight="1169" math="0" shadow="0">
      <root>
        <mxCell id="0" />
        <mxCell id="1" parent="0" />
        <mxCell id="NTTVJED9bOY2ueuiA7yu-10" value="" style="rounded=1;whiteSpace=wrap;html=1;fillColor=none;perimeterSpacing=0;strokeWidth=3;dashed=1;" vertex="1" parent="1">
          <mxGeometry x="310" y="140" width="460" height="120" as="geometry" />
        </mxCell>
        <mxCell id="NTTVJED9bOY2ueuiA7yu-4" value="Run inside docker container" style="edgeStyle=orthogonalEdgeStyle;rounded=0;orthogonalLoop=1;jettySize=auto;html=1;" edge="1" parent="1" source="NTTVJED9bOY2ueuiA7yu-1" target="NTTVJED9bOY2ueuiA7yu-2">
          <mxGeometry relative="1" as="geometry" />
        </mxCell>
        <mxCell id="NTTVJED9bOY2ueuiA7yu-13" style="edgeStyle=orthogonalEdgeStyle;rounded=0;orthogonalLoop=1;jettySize=auto;html=1;" edge="1" parent="1" source="NTTVJED9bOY2ueuiA7yu-1" target="NTTVJED9bOY2ueuiA7yu-12">
          <mxGeometry relative="1" as="geometry" />
        </mxCell>
        <mxCell id="NTTVJED9bOY2ueuiA7yu-14" value="Push code to GitHub" style="edgeLabel;html=1;align=center;verticalAlign=middle;resizable=0;points=[];" vertex="1" connectable="0" parent="NTTVJED9bOY2ueuiA7yu-13">
          <mxGeometry x="0.3467" y="1" relative="1" as="geometry">
            <mxPoint x="-1" y="19" as="offset" />
          </mxGeometry>
        </mxCell>
        <mxCell id="NTTVJED9bOY2ueuiA7yu-1" value="Edit Code on Laptop" style="verticalLabelPosition=bottom;html=1;verticalAlign=top;align=center;strokeColor=none;fillColor=#00BEF2;shape=mxgraph.azure.laptop;pointerEvents=1;" vertex="1" parent="1">
          <mxGeometry x="220" y="150" width="50" height="30" as="geometry" />
        </mxCell>
        <mxCell id="NTTVJED9bOY2ueuiA7yu-2" value="" style="image;sketch=0;aspect=fixed;html=1;points=[];align=center;fontSize=12;image=img/lib/mscae/Docker.svg;" vertex="1" parent="1">
          <mxGeometry x="450" y="200" width="50" height="41" as="geometry" />
        </mxCell>
        <mxCell id="NTTVJED9bOY2ueuiA7yu-3" value="" style="image;aspect=fixed;html=1;points=[];align=center;fontSize=12;image=img/lib/azure2/general/Browser.svg;" vertex="1" parent="1">
          <mxGeometry x="680" y="189" width="65" height="52" as="geometry" />
        </mxCell>
        <mxCell id="NTTVJED9bOY2ueuiA7yu-6" style="edgeStyle=orthogonalEdgeStyle;rounded=0;orthogonalLoop=1;jettySize=auto;html=1;entryX=0.154;entryY=0.606;entryDx=0;entryDy=0;entryPerimeter=0;" edge="1" parent="1" source="NTTVJED9bOY2ueuiA7yu-2" target="NTTVJED9bOY2ueuiA7yu-3">
          <mxGeometry relative="1" as="geometry" />
        </mxCell>
        <mxCell id="NTTVJED9bOY2ueuiA7yu-7" value="Access on localhost:8080" style="edgeLabel;html=1;align=center;verticalAlign=middle;resizable=0;points=[];" vertex="1" connectable="0" parent="NTTVJED9bOY2ueuiA7yu-6">
          <mxGeometry x="-0.3" y="-1" relative="1" as="geometry">
            <mxPoint x="23" y="-1" as="offset" />
          </mxGeometry>
        </mxCell>
        <mxCell id="NTTVJED9bOY2ueuiA7yu-8" value="" style="shape=image;verticalLabelPosition=bottom;labelBackgroundColor=default;verticalAlign=top;aspect=fixed;imageAspect=0;image=https://upload.wikimedia.org/wikipedia/commons/thumb/9/9a/Visual_Studio_Code_1.35_icon.svg/2048px-Visual_Studio_Code_1.35_icon.svg.png;" vertex="1" parent="1">
          <mxGeometry x="170" y="150" width="30" height="30" as="geometry" />
        </mxCell>
        <mxCell id="NTTVJED9bOY2ueuiA7yu-11" value="Local Development" style="text;html=1;align=center;verticalAlign=middle;whiteSpace=wrap;rounded=0;" vertex="1" parent="1">
          <mxGeometry x="470" y="90" width="140" height="40" as="geometry" />
        </mxCell>
        <mxCell id="NTTVJED9bOY2ueuiA7yu-16" style="edgeStyle=orthogonalEdgeStyle;rounded=0;orthogonalLoop=1;jettySize=auto;html=1;" edge="1" parent="1" source="NTTVJED9bOY2ueuiA7yu-12" target="NTTVJED9bOY2ueuiA7yu-15">
          <mxGeometry relative="1" as="geometry" />
        </mxCell>
        <mxCell id="NTTVJED9bOY2ueuiA7yu-17" value="Github action kicked off&lt;div&gt;on push to /wedding-site&lt;/div&gt;&lt;div&gt;folder&lt;/div&gt;" style="edgeLabel;html=1;align=center;verticalAlign=middle;resizable=0;points=[];" vertex="1" connectable="0" parent="NTTVJED9bOY2ueuiA7yu-16">
          <mxGeometry x="-0.3223" y="-2" relative="1" as="geometry">
            <mxPoint y="7" as="offset" />
          </mxGeometry>
        </mxCell>
        <mxCell id="NTTVJED9bOY2ueuiA7yu-12" value="" style="dashed=0;outlineConnect=0;html=1;align=center;labelPosition=center;verticalLabelPosition=bottom;verticalAlign=top;shape=mxgraph.webicons.github;gradientColor=#DFDEDE" vertex="1" parent="1">
          <mxGeometry x="193.8" y="330" width="102.4" height="102.4" as="geometry" />
        </mxCell>
        <mxCell id="NTTVJED9bOY2ueuiA7yu-19" style="edgeStyle=orthogonalEdgeStyle;rounded=0;orthogonalLoop=1;jettySize=auto;html=1;" edge="1" parent="1" source="NTTVJED9bOY2ueuiA7yu-15" target="NTTVJED9bOY2ueuiA7yu-18">
          <mxGeometry relative="1" as="geometry" />
        </mxCell>
        <mxCell id="NTTVJED9bOY2ueuiA7yu-20" value="Action pushes code to&lt;div&gt;Cloudflare Pages&amp;nbsp;&lt;/div&gt;" style="edgeLabel;html=1;align=center;verticalAlign=middle;resizable=0;points=[];" vertex="1" connectable="0" parent="NTTVJED9bOY2ueuiA7yu-19">
          <mxGeometry x="0.2" relative="1" as="geometry">
            <mxPoint as="offset" />
          </mxGeometry>
        </mxCell>
        <mxCell id="NTTVJED9bOY2ueuiA7yu-15" value="" style="shape=image;verticalLabelPosition=bottom;labelBackgroundColor=default;verticalAlign=top;aspect=fixed;imageAspect=0;image=https://static-00.iconduck.com/assets.00/githubactions-icon-2048x2048-ipqow27x.png;" vertex="1" parent="1">
          <mxGeometry x="205" y="505" width="80" height="80" as="geometry" />
        </mxCell>
        <mxCell id="NTTVJED9bOY2ueuiA7yu-18" value="Assets deployed to CF Pages&#xa;Using a custom domain so that anything &#xa;deployed to XXXX.pages.dev is routed to&#xa;hollyandste.wedding " style="shape=image;verticalLabelPosition=bottom;labelBackgroundColor=default;verticalAlign=top;aspect=fixed;imageAspect=0;image=https://images.seeklogo.com/logo-png/42/2/cloudflare-pages-single-logo-png_seeklogo-426078.png;" vertex="1" parent="1">
          <mxGeometry x="200" y="660" width="90" height="90" as="geometry" />
        </mxCell>
        <mxCell id="NTTVJED9bOY2ueuiA7yu-27" style="edgeStyle=orthogonalEdgeStyle;rounded=0;orthogonalLoop=1;jettySize=auto;html=1;exitX=0;exitY=0.75;exitDx=0;exitDy=0;" edge="1" parent="1" source="NTTVJED9bOY2ueuiA7yu-23">
          <mxGeometry relative="1" as="geometry">
            <mxPoint x="300" y="720" as="targetPoint" />
          </mxGeometry>
        </mxCell>
        <mxCell id="NTTVJED9bOY2ueuiA7yu-23" value="" style="shape=image;verticalLabelPosition=bottom;labelBackgroundColor=default;verticalAlign=top;aspect=fixed;imageAspect=0;image=https://static-00.iconduck.com/assets.00/namecheap-icon-2048x1135-qadbwc07.png;" vertex="1" parent="1">
          <mxGeometry x="430" y="674.52" width="110" height="60.96" as="geometry" />
        </mxCell>
        <mxCell id="NTTVJED9bOY2ueuiA7yu-26" style="edgeStyle=orthogonalEdgeStyle;rounded=0;orthogonalLoop=1;jettySize=auto;html=1;exitX=1;exitY=0.25;exitDx=0;exitDy=0;entryX=-0.018;entryY=0.123;entryDx=0;entryDy=0;entryPerimeter=0;" edge="1" parent="1" source="NTTVJED9bOY2ueuiA7yu-18" target="NTTVJED9bOY2ueuiA7yu-23">
          <mxGeometry relative="1" as="geometry" />
        </mxCell>
        <mxCell id="NTTVJED9bOY2ueuiA7yu-28" value="Domain purchased from NameCheap&lt;div&gt;Registered there, but using CF DNS and protection.&lt;/div&gt;&lt;div&gt;&lt;br&gt;&lt;/div&gt;" style="text;html=1;align=center;verticalAlign=middle;resizable=0;points=[];autosize=1;strokeColor=none;fillColor=none;" vertex="1" parent="1">
          <mxGeometry x="330" y="603" width="300" height="60" as="geometry" />
        </mxCell>
        <mxCell id="NTTVJED9bOY2ueuiA7yu-32" style="edgeStyle=orthogonalEdgeStyle;rounded=0;orthogonalLoop=1;jettySize=auto;html=1;" edge="1" parent="1" source="NTTVJED9bOY2ueuiA7yu-31">
          <mxGeometry relative="1" as="geometry">
            <mxPoint x="245" y="820" as="targetPoint" />
          </mxGeometry>
        </mxCell>
        <mxCell id="NTTVJED9bOY2ueuiA7yu-33" value="User accesses hollyandste.wedding&lt;div&gt;but is getting the content from my CF page deployment&lt;/div&gt;" style="edgeLabel;html=1;align=center;verticalAlign=middle;resizable=0;points=[];" vertex="1" connectable="0" parent="NTTVJED9bOY2ueuiA7yu-32">
          <mxGeometry x="-0.0071" y="-3" relative="1" as="geometry">
            <mxPoint x="1" as="offset" />
          </mxGeometry>
        </mxCell>
        <mxCell id="NTTVJED9bOY2ueuiA7yu-31" value="" style="image;aspect=fixed;perimeter=ellipsePerimeter;html=1;align=center;shadow=0;dashed=0;spacingTop=3;image=img/lib/active_directory/internet_globe.svg;" vertex="1" parent="1">
          <mxGeometry x="185" y="890" width="120" height="120" as="geometry" />
        </mxCell>
      </root>
    </mxGraphModel>
  </diagram>
</mxfile>
